<?xml version="1.0" encoding="UTF-8"?>
<svg width="800" height="600" viewBox="0 0 800 600" fill="none" xmlns="http://www.w3.org/2000/svg">
    <!-- Arka plan -->
    <rect width="800" height="600" rx="40" fill="#232323"/>
    
    <!-- Dekoratif elementler -->
    <circle cx="400" cy="300" r="250" fill="url(#gradient1)" opacity="0.1"/>
    <circle cx="400" cy="300" r="200" fill="url(#gradient2)" opacity="0.15"/>
    
    <!-- Ana görsel - Lojistik ve teknoloji temalı -->
    <g transform="translate(200, 150)">
        <!-- Kamyon -->
        <path d="M100 200 L300 200 L300 250 L350 250 L350 300 L100 300 Z" fill="#ff6600"/>
        <rect x="120" y="250" width="60" height="50" rx="5" fill="#1a1a1a"/>
        <rect x="220" y="250" width="60" height="50" rx="5" fill="#1a1a1a"/>
        <circle cx="150" cy="300" r="20" fill="#333"/>
        <circle cx="150" cy="300" r="10" fill="#666"/>
        <circle cx="270" cy="300" r="20" fill="#333"/>
        <circle cx="270" cy="300" r="10" fill="#666"/>
        
        <!-- Dijital elementler -->
        <g transform="translate(50, 100)">
            <!-- Veri akışı -->
            <path d="M0 0 L100 0 L100 20 L0 20 Z" fill="#ff6600" opacity="0.8"/>
            <path d="M20 0 L20 20" stroke="#fff" stroke-width="2" stroke-dasharray="4 4"/>
            <path d="M40 0 L40 20" stroke="#fff" stroke-width="2" stroke-dasharray="4 4"/>
            <path d="M60 0 L60 20" stroke="#fff" stroke-width="2" stroke-dasharray="4 4"/>
            <path d="M80 0 L80 20" stroke="#fff" stroke-width="2" stroke-dasharray="4 4"/>
            
            <!-- Bağlantı noktaları -->
            <circle cx="0" cy="10" r="5" fill="#ff6600"/>
            <circle cx="100" cy="10" r="5" fill="#ff6600"/>
        </g>
        
        <!-- Teknoloji ikonları -->
        <g transform="translate(200, 50)">
            <!-- GPS -->
            <circle cx="0" cy="0" r="30" fill="none" stroke="#ff6600" stroke-width="3"/>
            <circle cx="0" cy="0" r="20" fill="none" stroke="#ff6600" stroke-width="2"/>
            <circle cx="0" cy="0" r="10" fill="#ff6600"/>
            <path d="M0 -30 L0 -40 M0 30 L0 40 M-30 0 L-40 0 M30 0 L40 0" stroke="#ff6600" stroke-width="2"/>
            
            <!-- Takip -->
            <g transform="translate(80, 0)">
                <rect x="-20" y="-20" width="40" height="40" rx="5" fill="none" stroke="#ff6600" stroke-width="2"/>
                <path d="M-10 -10 L10 10 M-10 10 L10 -10" stroke="#ff6600" stroke-width="2"/>
            </g>
        </g>
    </g>
    
    <!-- Gradyanlar -->
    <defs>
        <radialGradient id="gradient1" cx="0.5" cy="0.5" r="0.5" gradientUnits="objectBoundingBox">
            <stop offset="0%" stop-color="#ff6600"/>
            <stop offset="100%" stop-color="#ff6600" stop-opacity="0"/>
        </radialGradient>
        <radialGradient id="gradient2" cx="0.5" cy="0.5" r="0.5" gradientUnits="objectBoundingBox">
            <stop offset="0%" stop-color="#ff6600"/>
            <stop offset="100%" stop-color="#ff6600" stop-opacity="0"/>
        </radialGradient>
    </defs>
</svg> 