<svg width="800" height="600" viewBox="0 0 800 600" fill="none" xmlns="http://www.w3.org/2000/svg">
    <!-- Arka plan şekilleri -->
    <circle cx="400" cy="300" r="250" fill="#FF6600" fill-opacity="0.1"/>
    <circle cx="400" cy="300" r="200" fill="#FF6600" fill-opacity="0.05"/>
    
    <!-- Teslimat kutusu -->
    <rect x="300" y="250" width="200" height="150" rx="10" fill="#FF6600" fill-opacity="0.9"/>
    <rect x="320" y="270" width="160" height="110" rx="5" fill="#FFFFFF"/>
    <path d="M350 320 L450 320" stroke="#FF6600" stroke-width="4" stroke-linecap="round"/>
    <path d="M350 340 L450 340" stroke="#FF6600" stroke-width="4" stroke-linecap="round"/>
    
    <!-- Teslimat aracı -->
    <rect x="200" y="350" width="300" height="80" rx="20" fill="#333333"/>
    <rect x="220" y="370" width="260" height="40" rx="10" fill="#FF6600"/>
    <circle cx="250" cy="430" r="30" fill="#222222"/>
    <circle cx="250" cy="430" r="15" fill="#FFFFFF"/>
    <circle cx="550" cy="430" r="30" fill="#222222"/>
    <circle cx="550" cy="430" r="15" fill="#FFFFFF"/>
    
    <!-- Houlight logosu -->
    <text x="400" y="390" font-family="Arial" font-size="24" font-weight="bold" fill="#FFFFFF" text-anchor="middle">HOULIGHT</text>
    
    <!-- Dekoratif elementler -->
    <circle cx="150" cy="150" r="20" fill="#FF6600" fill-opacity="0.3"/>
    <circle cx="650" cy="450" r="15" fill="#FF6600" fill-opacity="0.3"/>
    <circle cx="700" cy="200" r="25" fill="#FF6600" fill-opacity="0.2"/>
    <circle cx="100" cy="400" r="18" fill="#FF6600" fill-opacity="0.2"/>
</svg> 